<?xml version="1.0" encoding="utf-8" standalone="no"?>
<!DOCTYPE svg PUBLIC "-//W3C//DTD SVG 1.1//EN"
  "http://www.w3.org/Graphics/SVG/1.1/DTD/svg11.dtd">
<!-- Created with matplotlib (http://matplotlib.org/) -->
<svg height="420pt" version="1.1" viewBox="0 0 425 420" width="425pt" xmlns="http://www.w3.org/2000/svg" xmlns:xlink="http://www.w3.org/1999/xlink">
 <defs>
  <style type="text/css">
*{stroke-linecap:butt;stroke-linejoin:round;}
  </style>
 </defs>
 <g id="figure_1">
  <g id="patch_1">
   <path d="
M0 420.117
L425.122 420.117
L425.122 0
L0 0
z
" style="fill:#ffffff;"/>
  </g>
  <g id="axes_1">
   <g id="patch_2">
    <path d="
M18.1958 406.926
L417.922 406.926
L417.922 7.2
L18.1958 7.2
z
" style="fill:#ffffff;"/>
   </g>
   <g id="line2d_1">
    <path clip-path="url(#pc39c081b78)" d="
M25.8828 14.887
L32.9919 35.8224
L40.3651 56.7175
L45.7125 71.3598
L52.1551 88.4391
L58.0172 103.455
L65.9697 123.041
L73.3691 140.47
L80.1587 155.803
L87.3997 171.476
L93.384 183.908
L99.628 196.389
L104.162 205.144
L111.935 219.559
L118.603 231.34
L124.06 240.59
L130.526 251.103
L136.625 260.584
L143.552 270.851
L147.407 276.338
L154.041 285.411
L160.119 293.322
L164.047 298.234
L169.905 305.275
L177.528 313.935
L184.602 321.48
L189.503 326.438
L195.095 331.832
L200.958 337.194
L206.725 342.183
L212.574 346.963
L218.573 351.58
L225.894 356.835
L233.039 361.577
L239.096 365.309
L243.283 367.739
L250.858 371.835
L255.762 374.287
L261.093 376.783
L266.645 379.198
L274.495 382.309
L281.522 384.805
L286.558 386.433
L291.668 387.956
L298.212 389.723
L305.964 391.565
L314.286 393.26
L322.177 394.617
L329.405 395.664
L335.99 396.469
L346.856 397.516
L357.014 398.219
L365.453 398.631
L376.902 398.988
L390.655 399.188
L410.235 399.239
L410.235 399.239" style="fill:none;stroke:#ff0000;stroke-linecap:square;stroke-width:3.0;"/>
   </g>
   <g id="line2d_2">
    <path clip-path="url(#pc39c081b78)" d="
M25.8828 399.239
L31.5844 382.638
L36.1309 370.113
L41.1946 356.891
L46.4239 344.026
L51.3797 332.56
L55.3908 323.786
L59.7495 314.755
L63.5936 307.218
L67.7229 299.559
L71.718 292.574
L75.3358 286.602
L80.1974 279.094
L83.3963 274.472
L87.1814 269.323
L91.9032 263.376
L95.7708 258.891
L100.525 253.842
L105.135 249.423
L108.715 246.309
L112.46 243.341
L116.471 240.483
L121.103 237.586
L124.815 235.569
L129.057 233.587
L132.464 232.239
L135.668 231.164
L137.802 230.55
L141.204 229.737
L145.445 229
L149.307 228.59
L151.11 228.482
L156.198 228.453
L158.868 228.599
L163.4 229.089
L166.311 229.561
L170.288 230.399
L175.347 231.775
L178.512 232.807
L182.088 234.124
L186.557 235.988
L189.516 237.351
L194.645 239.947
L198.864 242.293
L203.437 245.038
L207.376 247.565
L212.407 250.997
L218.339 255.317
L226.178 261.443
L234.659 268.54
L243.013 275.937
L251.897 284.168
L261.53 293.418
L274.268 305.987
L303.964 335.462
L313.615 344.691
L322.791 353.134
L330.229 359.678
L338.354 366.452
L343.623 370.608
L350.871 375.981
L356.608 379.924
L361.792 383.231
L366.173 385.822
L371.217 388.563
L375.89 390.855
L381.368 393.224
L384.913 394.564
L388.327 395.706
L392.327 396.853
L398.148 398.135
L402.501 398.782
L405.461 399.063
L410.235 399.239
L410.235 399.239" style="fill:none;stroke:#7fff00;stroke-linecap:square;stroke-width:3.0;"/>
   </g>
   <g id="line2d_3">
    <path clip-path="url(#pc39c081b78)" d="
M25.8828 399.239
L30.6728 399.062
L33.0706 398.843
L36.8588 398.326
L40.4445 397.647
L45.0383 396.518
L48.4443 395.499
L52.1299 394.229
L55.7943 392.799
L60.919 390.531
L65.8173 388.085
L72.3228 384.439
L78.7962 380.394
L84.0523 376.825
L89.109 373.17
L94.9361 368.707
L103.022 362.115
L110.391 355.752
L117.978 348.901
L127.631 339.824
L138.024 329.721
L154.38 313.448
L171.984 295.962
L181.371 286.873
L190.156 278.632
L199.214 270.491
L206.967 263.879
L214.033 258.188
L220.866 253.033
L226.485 249.077
L232.464 245.174
L235.823 243.129
L240.879 240.266
L246.129 237.579
L252.224 234.848
L255.028 233.74
L259.163 232.283
L263.158 231.083
L267.304 230.063
L270.319 229.469
L272.797 229.078
L277.437 228.585
L280.819 228.429
L284.799 228.472
L288.7 228.76
L293.283 229.417
L296.506 230.092
L299.652 230.925
L302.79 231.931
L306.598 233.392
L309.514 234.692
L314.224 237.134
L316.906 238.717
L320.319 240.939
L323.186 242.988
L328.064 246.864
L330.826 249.281
L333.829 252.096
L337.916 256.245
L341.743 260.471
L345.277 264.669
L349.748 270.398
L353.546 275.64
L357.121 280.893
L361.988 288.556
L366.398 296.016
L369.558 301.67
L374.548 311.136
L379.549 321.295
L384.28 331.535
L388.512 341.23
L392.222 350.146
L397.526 363.593
L402.811 377.819
L407.857 392.194
L410.235 399.239
L410.235 399.239" style="fill:none;stroke:#00ffff;stroke-linecap:square;stroke-width:3.0;"/>
   </g>
   <g id="line2d_4">
    <path clip-path="url(#pc39c081b78)" d="
M25.8828 399.239
L51.0052 399.132
L63.7253 398.872
L76.5523 398.359
L86.3309 397.744
L96.4616 396.859
L105.588 395.811
L113.756 394.646
L121.838 393.258
L129.571 391.693
L137.688 389.778
L145.456 387.666
L152.687 385.437
L158.612 383.41
L165.228 380.924
L172.123 378.068
L179.735 374.587
L185.824 371.543
L191.042 368.743
L197.853 364.812
L204.14 360.897
L209.088 357.614
L215.968 352.746
L220.728 349.166
L227.657 343.631
L234.038 338.187
L241.441 331.438
L245.188 327.841
L251.769 321.219
L258.059 314.517
L262.514 309.546
L270.514 300.138
L276.381 292.836
L282.184 285.269
L287.825 277.576
L293.548 269.426
L299.455 260.641
L306.782 249.205
L311.462 241.579
L318.741 229.214
L324.688 218.643
L331.098 206.771
L337.176 195.041
L342.773 183.827
L348.617 171.69
L354.921 158.094
L360.793 144.952
L366.669 131.33
L373.51 114.871
L379.693 99.424
L386.356 82.1642
L393.283 63.5321
L400.72 42.7316
L407.274 23.7017
L410.235 14.887
L410.235 14.887" style="fill:none;stroke:#7f00ff;stroke-linecap:square;stroke-width:3.0;"/>
   </g>
   <g id="matplotlib.axis_1">
    <g id="xtick_1">
     <g id="line2d_5">
      <defs>
       <path d="
M0 0
L0 -4" id="m93b0483c22" style="stroke:#000000;stroke-width:0.5;"/>
      </defs>
      <g>
       <use style="stroke:#000000;stroke-width:0.5;" x="25.8828125" xlink:href="#m93b0483c22" y="399.239112426"/>
      </g>
     </g>
    </g>
    <g id="xtick_2">
     <g id="line2d_6">
      <g>
       <use style="stroke:#000000;stroke-width:0.5;" x="102.753226701" xlink:href="#m93b0483c22" y="399.239112426"/>
      </g>
     </g>
     <g id="text_1">
      <!-- 0.2 -->
      <defs>
       <path d="
M19.1875 8.29688
L53.6094 8.29688
L53.6094 0
L7.32812 0
L7.32812 8.29688
Q12.9375 14.1094 22.625 23.8906
Q32.3281 33.6875 34.8125 36.5312
Q39.5469 41.8438 41.4219 45.5312
Q43.3125 49.2188 43.3125 52.7812
Q43.3125 58.5938 39.2344 62.25
Q35.1562 65.9219 28.6094 65.9219
Q23.9688 65.9219 18.8125 64.3125
Q13.6719 62.7031 7.8125 59.4219
L7.8125 69.3906
Q13.7656 71.7812 18.9375 73
Q24.125 74.2188 28.4219 74.2188
Q39.75 74.2188 46.4844 68.5469
Q53.2188 62.8906 53.2188 53.4219
Q53.2188 48.9219 51.5312 44.8906
Q49.8594 40.875 45.4062 35.4062
Q44.1875 33.9844 37.6406 27.2188
Q31.1094 20.4531 19.1875 8.29688" id="BitstreamVeraSans-Roman-32"/>
       <path d="
M31.7812 66.4062
Q24.1719 66.4062 20.3281 58.9062
Q16.5 51.4219 16.5 36.375
Q16.5 21.3906 20.3281 13.8906
Q24.1719 6.39062 31.7812 6.39062
Q39.4531 6.39062 43.2812 13.8906
Q47.125 21.3906 47.125 36.375
Q47.125 51.4219 43.2812 58.9062
Q39.4531 66.4062 31.7812 66.4062
M31.7812 74.2188
Q44.0469 74.2188 50.5156 64.5156
Q56.9844 54.8281 56.9844 36.375
Q56.9844 17.9688 50.5156 8.26562
Q44.0469 -1.42188 31.7812 -1.42188
Q19.5312 -1.42188 13.0625 8.26562
Q6.59375 17.9688 6.59375 36.375
Q6.59375 54.8281 13.0625 64.5156
Q19.5312 74.2188 31.7812 74.2188" id="BitstreamVeraSans-Roman-30"/>
       <path d="
M10.6875 12.4062
L21 12.4062
L21 0
L10.6875 0
z
" id="BitstreamVeraSans-Roman-2e"/>
      </defs>
      <g transform="translate(95.6321329512 410.837549926)scale(0.1 -0.1)">
       <use xlink:href="#BitstreamVeraSans-Roman-30"/>
       <use x="63.623046875" xlink:href="#BitstreamVeraSans-Roman-2e"/>
       <use x="95.41015625" xlink:href="#BitstreamVeraSans-Roman-32"/>
      </g>
     </g>
    </g>
    <g id="xtick_3">
     <g id="line2d_7">
      <g>
       <use style="stroke:#000000;stroke-width:0.5;" x="179.623640902" xlink:href="#m93b0483c22" y="399.239112426"/>
      </g>
     </g>
     <g id="text_2">
      <!-- 0.4 -->
      <defs>
       <path d="
M37.7969 64.3125
L12.8906 25.3906
L37.7969 25.3906
z

M35.2031 72.9062
L47.6094 72.9062
L47.6094 25.3906
L58.0156 25.3906
L58.0156 17.1875
L47.6094 17.1875
L47.6094 0
L37.7969 0
L37.7969 17.1875
L4.89062 17.1875
L4.89062 26.7031
z
" id="BitstreamVeraSans-Roman-34"/>
      </defs>
      <g transform="translate(172.282234652 410.837549926)scale(0.1 -0.1)">
       <use xlink:href="#BitstreamVeraSans-Roman-30"/>
       <use x="63.623046875" xlink:href="#BitstreamVeraSans-Roman-2e"/>
       <use x="95.41015625" xlink:href="#BitstreamVeraSans-Roman-34"/>
      </g>
     </g>
    </g>
    <g id="xtick_4">
     <g id="line2d_8">
      <g>
       <use style="stroke:#000000;stroke-width:0.5;" x="256.494055104" xlink:href="#m93b0483c22" y="399.239112426"/>
      </g>
     </g>
     <g id="text_3">
      <!-- 0.6 -->
      <defs>
       <path d="
M33.0156 40.375
Q26.375 40.375 22.4844 35.8281
Q18.6094 31.2969 18.6094 23.3906
Q18.6094 15.5312 22.4844 10.9531
Q26.375 6.39062 33.0156 6.39062
Q39.6562 6.39062 43.5312 10.9531
Q47.4062 15.5312 47.4062 23.3906
Q47.4062 31.2969 43.5312 35.8281
Q39.6562 40.375 33.0156 40.375
M52.5938 71.2969
L52.5938 62.3125
Q48.875 64.0625 45.0938 64.9844
Q41.3125 65.9219 37.5938 65.9219
Q27.8281 65.9219 22.6719 59.3281
Q17.5312 52.7344 16.7969 39.4062
Q19.6719 43.6562 24.0156 45.9219
Q28.375 48.1875 33.5938 48.1875
Q44.5781 48.1875 50.9531 41.5156
Q57.3281 34.8594 57.3281 23.3906
Q57.3281 12.1562 50.6875 5.35938
Q44.0469 -1.42188 33.0156 -1.42188
Q20.3594 -1.42188 13.6719 8.26562
Q6.98438 17.9688 6.98438 36.375
Q6.98438 53.6562 15.1875 63.9375
Q23.3906 74.2188 37.2031 74.2188
Q40.9219 74.2188 44.7031 73.4844
Q48.4844 72.75 52.5938 71.2969" id="BitstreamVeraSans-Roman-36"/>
      </defs>
      <g transform="translate(249.187023854 410.837549926)scale(0.1 -0.1)">
       <use xlink:href="#BitstreamVeraSans-Roman-30"/>
       <use x="63.623046875" xlink:href="#BitstreamVeraSans-Roman-2e"/>
       <use x="95.41015625" xlink:href="#BitstreamVeraSans-Roman-36"/>
      </g>
     </g>
    </g>
    <g id="xtick_5">
     <g id="line2d_9">
      <g>
       <use style="stroke:#000000;stroke-width:0.5;" x="333.364469305" xlink:href="#m93b0483c22" y="399.239112426"/>
      </g>
     </g>
     <g id="text_4">
      <!-- 0.8 -->
      <defs>
       <path d="
M31.7812 34.625
Q24.75 34.625 20.7188 30.8594
Q16.7031 27.0938 16.7031 20.5156
Q16.7031 13.9219 20.7188 10.1562
Q24.75 6.39062 31.7812 6.39062
Q38.8125 6.39062 42.8594 10.1719
Q46.9219 13.9688 46.9219 20.5156
Q46.9219 27.0938 42.8906 30.8594
Q38.875 34.625 31.7812 34.625
M21.9219 38.8125
Q15.5781 40.375 12.0312 44.7188
Q8.5 49.0781 8.5 55.3281
Q8.5 64.0625 14.7188 69.1406
Q20.9531 74.2188 31.7812 74.2188
Q42.6719 74.2188 48.875 69.1406
Q55.0781 64.0625 55.0781 55.3281
Q55.0781 49.0781 51.5312 44.7188
Q48 40.375 41.7031 38.8125
Q48.8281 37.1562 52.7969 32.3125
Q56.7812 27.4844 56.7812 20.5156
Q56.7812 9.90625 50.3125 4.23438
Q43.8438 -1.42188 31.7812 -1.42188
Q19.7344 -1.42188 13.25 4.23438
Q6.78125 9.90625 6.78125 20.5156
Q6.78125 27.4844 10.7812 32.3125
Q14.7969 37.1562 21.9219 38.8125
M18.3125 54.3906
Q18.3125 48.7344 21.8438 45.5625
Q25.3906 42.3906 31.7812 42.3906
Q38.1406 42.3906 41.7188 45.5625
Q45.3125 48.7344 45.3125 54.3906
Q45.3125 60.0625 41.7188 63.2344
Q38.1406 66.4062 31.7812 66.4062
Q25.3906 66.4062 21.8438 63.2344
Q18.3125 60.0625 18.3125 54.3906" id="BitstreamVeraSans-Roman-38"/>
      </defs>
      <g transform="translate(326.084781805 410.837549926)scale(0.1 -0.1)">
       <use xlink:href="#BitstreamVeraSans-Roman-30"/>
       <use x="63.623046875" xlink:href="#BitstreamVeraSans-Roman-2e"/>
       <use x="95.41015625" xlink:href="#BitstreamVeraSans-Roman-38"/>
      </g>
     </g>
    </g>
    <g id="xtick_6">
     <g id="line2d_10">
      <g>
       <use style="stroke:#000000;stroke-width:0.5;" x="410.234883506" xlink:href="#m93b0483c22" y="399.239112426"/>
      </g>
     </g>
     <g id="text_5">
      <!-- 1 -->
      <defs>
       <path d="
M12.4062 8.29688
L28.5156 8.29688
L28.5156 63.9219
L10.9844 60.4062
L10.9844 69.3906
L28.4219 72.9062
L38.2812 72.9062
L38.2812 8.29688
L54.3906 8.29688
L54.3906 0
L12.4062 0
z
" id="BitstreamVeraSans-Roman-31"/>
      </defs>
      <g transform="translate(408.064571006 410.837549926)scale(0.1 -0.1)">
       <use xlink:href="#BitstreamVeraSans-Roman-31"/>
      </g>
     </g>
    </g>
    <g id="xtick_7">
     <g id="line2d_11">
      <defs>
       <path d="
M0 0
L0 -2" id="m177f7580d0" style="stroke:#000000;stroke-width:0.5;"/>
      </defs>
      <g>
       <use style="stroke:#000000;stroke-width:0.5;" x="45.1004160503" xlink:href="#m177f7580d0" y="399.239112426"/>
      </g>
     </g>
    </g>
    <g id="xtick_8">
     <g id="line2d_12">
      <g>
       <use style="stroke:#000000;stroke-width:0.5;" x="64.3180196006" xlink:href="#m177f7580d0" y="399.239112426"/>
      </g>
     </g>
    </g>
    <g id="xtick_9">
     <g id="line2d_13">
      <g>
       <use style="stroke:#000000;stroke-width:0.5;" x="83.5356231509" xlink:href="#m177f7580d0" y="399.239112426"/>
      </g>
     </g>
    </g>
    <g id="xtick_10">
     <g id="line2d_14">
      <g>
       <use style="stroke:#000000;stroke-width:0.5;" x="102.753226701" xlink:href="#m177f7580d0" y="399.239112426"/>
      </g>
     </g>
    </g>
    <g id="xtick_11">
     <g id="line2d_15">
      <g>
       <use style="stroke:#000000;stroke-width:0.5;" x="121.970830251" xlink:href="#m177f7580d0" y="399.239112426"/>
      </g>
     </g>
    </g>
    <g id="xtick_12">
     <g id="line2d_16">
      <g>
       <use style="stroke:#000000;stroke-width:0.5;" x="141.188433802" xlink:href="#m177f7580d0" y="399.239112426"/>
      </g>
     </g>
    </g>
    <g id="xtick_13">
     <g id="line2d_17">
      <g>
       <use style="stroke:#000000;stroke-width:0.5;" x="160.406037352" xlink:href="#m177f7580d0" y="399.239112426"/>
      </g>
     </g>
    </g>
    <g id="xtick_14">
     <g id="line2d_18">
      <g>
       <use style="stroke:#000000;stroke-width:0.5;" x="179.623640902" xlink:href="#m177f7580d0" y="399.239112426"/>
      </g>
     </g>
    </g>
    <g id="xtick_15">
     <g id="line2d_19">
      <g>
       <use style="stroke:#000000;stroke-width:0.5;" x="198.841244453" xlink:href="#m177f7580d0" y="399.239112426"/>
      </g>
     </g>
    </g>
    <g id="xtick_16">
     <g id="line2d_20">
      <g>
       <use style="stroke:#000000;stroke-width:0.5;" x="218.058848003" xlink:href="#m177f7580d0" y="399.239112426"/>
      </g>
     </g>
    </g>
    <g id="xtick_17">
     <g id="line2d_21">
      <g>
       <use style="stroke:#000000;stroke-width:0.5;" x="237.276451553" xlink:href="#m177f7580d0" y="399.239112426"/>
      </g>
     </g>
    </g>
    <g id="xtick_18">
     <g id="line2d_22">
      <g>
       <use style="stroke:#000000;stroke-width:0.5;" x="256.494055104" xlink:href="#m177f7580d0" y="399.239112426"/>
      </g>
     </g>
    </g>
    <g id="xtick_19">
     <g id="line2d_23">
      <g>
       <use style="stroke:#000000;stroke-width:0.5;" x="275.711658654" xlink:href="#m177f7580d0" y="399.239112426"/>
      </g>
     </g>
    </g>
    <g id="xtick_20">
     <g id="line2d_24">
      <g>
       <use style="stroke:#000000;stroke-width:0.5;" x="294.929262204" xlink:href="#m177f7580d0" y="399.239112426"/>
      </g>
     </g>
    </g>
    <g id="xtick_21">
     <g id="line2d_25">
      <g>
       <use style="stroke:#000000;stroke-width:0.5;" x="314.146865754" xlink:href="#m177f7580d0" y="399.239112426"/>
      </g>
     </g>
    </g>
    <g id="xtick_22">
     <g id="line2d_26">
      <g>
       <use style="stroke:#000000;stroke-width:0.5;" x="333.364469305" xlink:href="#m177f7580d0" y="399.239112426"/>
      </g>
     </g>
    </g>
    <g id="xtick_23">
     <g id="line2d_27">
      <g>
       <use style="stroke:#000000;stroke-width:0.5;" x="352.582072855" xlink:href="#m177f7580d0" y="399.239112426"/>
      </g>
     </g>
    </g>
    <g id="xtick_24">
     <g id="line2d_28">
      <g>
       <use style="stroke:#000000;stroke-width:0.5;" x="371.799676405" xlink:href="#m177f7580d0" y="399.239112426"/>
      </g>
     </g>
    </g>
    <g id="xtick_25">
     <g id="line2d_29">
      <g>
       <use style="stroke:#000000;stroke-width:0.5;" x="391.017279956" xlink:href="#m177f7580d0" y="399.239112426"/>
      </g>
     </g>
    </g>
    <g id="xtick_26">
     <g id="line2d_30">
      <g>
       <use style="stroke:#000000;stroke-width:0.5;" x="410.234883506" xlink:href="#m177f7580d0" y="399.239112426"/>
      </g>
     </g>
    </g>
   </g>
   <g id="matplotlib.axis_2">
    <g id="ytick_1">
     <g id="line2d_31">
      <defs>
       <path d="
M0 0
L4 0" id="m728421d6d4" style="stroke:#000000;stroke-width:0.5;"/>
      </defs>
      <g>
       <use style="stroke:#000000;stroke-width:0.5;" x="25.8828125" xlink:href="#m728421d6d4" y="399.239112426"/>
      </g>
     </g>
    </g>
    <g id="ytick_2">
     <g id="line2d_32">
      <g>
       <use style="stroke:#000000;stroke-width:0.5;" x="25.8828125" xlink:href="#m728421d6d4" y="322.368698225"/>
      </g>
     </g>
     <g id="text_6">
      <!-- 0.2 -->
      <g transform="translate(7.640625 325.128073225)scale(0.1 -0.1)">
       <use xlink:href="#BitstreamVeraSans-Roman-30"/>
       <use x="63.623046875" xlink:href="#BitstreamVeraSans-Roman-2e"/>
       <use x="95.41015625" xlink:href="#BitstreamVeraSans-Roman-32"/>
      </g>
     </g>
    </g>
    <g id="ytick_3">
     <g id="line2d_33">
      <g>
       <use style="stroke:#000000;stroke-width:0.5;" x="25.8828125" xlink:href="#m728421d6d4" y="245.498284024"/>
      </g>
     </g>
     <g id="text_7">
      <!-- 0.4 -->
      <g transform="translate(7.2 248.257659024)scale(0.1 -0.1)">
       <use xlink:href="#BitstreamVeraSans-Roman-30"/>
       <use x="63.623046875" xlink:href="#BitstreamVeraSans-Roman-2e"/>
       <use x="95.41015625" xlink:href="#BitstreamVeraSans-Roman-34"/>
      </g>
     </g>
    </g>
    <g id="ytick_4">
     <g id="line2d_34">
      <g>
       <use style="stroke:#000000;stroke-width:0.5;" x="25.8828125" xlink:href="#m728421d6d4" y="168.627869822"/>
      </g>
     </g>
     <g id="text_8">
      <!-- 0.6 -->
      <g transform="translate(7.26875 171.387244822)scale(0.1 -0.1)">
       <use xlink:href="#BitstreamVeraSans-Roman-30"/>
       <use x="63.623046875" xlink:href="#BitstreamVeraSans-Roman-2e"/>
       <use x="95.41015625" xlink:href="#BitstreamVeraSans-Roman-36"/>
      </g>
     </g>
    </g>
    <g id="ytick_5">
     <g id="line2d_35">
      <g>
       <use style="stroke:#000000;stroke-width:0.5;" x="25.8828125" xlink:href="#m728421d6d4" y="91.7574556213"/>
      </g>
     </g>
     <g id="text_9">
      <!-- 0.8 -->
      <g transform="translate(7.3234375 94.5168306213)scale(0.1 -0.1)">
       <use xlink:href="#BitstreamVeraSans-Roman-30"/>
       <use x="63.623046875" xlink:href="#BitstreamVeraSans-Roman-2e"/>
       <use x="95.41015625" xlink:href="#BitstreamVeraSans-Roman-38"/>
      </g>
     </g>
    </g>
    <g id="ytick_6">
     <g id="line2d_36">
      <g>
       <use style="stroke:#000000;stroke-width:0.5;" x="25.8828125" xlink:href="#m728421d6d4" y="14.8870414201"/>
      </g>
     </g>
     <g id="text_10">
      <!-- 1 -->
      <g transform="translate(17.5421875 17.6464164201)scale(0.1 -0.1)">
       <use xlink:href="#BitstreamVeraSans-Roman-31"/>
      </g>
     </g>
    </g>
    <g id="ytick_7">
     <g id="line2d_37">
      <defs>
       <path d="
M0 0
L2 0" id="mf0c55a9a47" style="stroke:#000000;stroke-width:0.5;"/>
      </defs>
      <g>
       <use style="stroke:#000000;stroke-width:0.5;" x="25.8828125" xlink:href="#mf0c55a9a47" y="380.021508876"/>
      </g>
     </g>
    </g>
    <g id="ytick_8">
     <g id="line2d_38">
      <g>
       <use style="stroke:#000000;stroke-width:0.5;" x="25.8828125" xlink:href="#mf0c55a9a47" y="360.803905325"/>
      </g>
     </g>
    </g>
    <g id="ytick_9">
     <g id="line2d_39">
      <g>
       <use style="stroke:#000000;stroke-width:0.5;" x="25.8828125" xlink:href="#mf0c55a9a47" y="341.586301775"/>
      </g>
     </g>
    </g>
    <g id="ytick_10">
     <g id="line2d_40">
      <g>
       <use style="stroke:#000000;stroke-width:0.5;" x="25.8828125" xlink:href="#mf0c55a9a47" y="322.368698225"/>
      </g>
     </g>
    </g>
    <g id="ytick_11">
     <g id="line2d_41">
      <g>
       <use style="stroke:#000000;stroke-width:0.5;" x="25.8828125" xlink:href="#mf0c55a9a47" y="303.151094675"/>
      </g>
     </g>
    </g>
    <g id="ytick_12">
     <g id="line2d_42">
      <g>
       <use style="stroke:#000000;stroke-width:0.5;" x="25.8828125" xlink:href="#mf0c55a9a47" y="283.933491124"/>
      </g>
     </g>
    </g>
    <g id="ytick_13">
     <g id="line2d_43">
      <g>
       <use style="stroke:#000000;stroke-width:0.5;" x="25.8828125" xlink:href="#mf0c55a9a47" y="264.715887574"/>
      </g>
     </g>
    </g>
    <g id="ytick_14">
     <g id="line2d_44">
      <g>
       <use style="stroke:#000000;stroke-width:0.5;" x="25.8828125" xlink:href="#mf0c55a9a47" y="245.498284024"/>
      </g>
     </g>
    </g>
    <g id="ytick_15">
     <g id="line2d_45">
      <g>
       <use style="stroke:#000000;stroke-width:0.5;" x="25.8828125" xlink:href="#mf0c55a9a47" y="226.280680473"/>
      </g>
     </g>
    </g>
    <g id="ytick_16">
     <g id="line2d_46">
      <g>
       <use style="stroke:#000000;stroke-width:0.5;" x="25.8828125" xlink:href="#mf0c55a9a47" y="207.063076923"/>
      </g>
     </g>
    </g>
    <g id="ytick_17">
     <g id="line2d_47">
      <g>
       <use style="stroke:#000000;stroke-width:0.5;" x="25.8828125" xlink:href="#mf0c55a9a47" y="187.845473373"/>
      </g>
     </g>
    </g>
    <g id="ytick_18">
     <g id="line2d_48">
      <g>
       <use style="stroke:#000000;stroke-width:0.5;" x="25.8828125" xlink:href="#mf0c55a9a47" y="168.627869822"/>
      </g>
     </g>
    </g>
    <g id="ytick_19">
     <g id="line2d_49">
      <g>
       <use style="stroke:#000000;stroke-width:0.5;" x="25.8828125" xlink:href="#mf0c55a9a47" y="149.410266272"/>
      </g>
     </g>
    </g>
    <g id="ytick_20">
     <g id="line2d_50">
      <g>
       <use style="stroke:#000000;stroke-width:0.5;" x="25.8828125" xlink:href="#mf0c55a9a47" y="130.192662722"/>
      </g>
     </g>
    </g>
    <g id="ytick_21">
     <g id="line2d_51">
      <g>
       <use style="stroke:#000000;stroke-width:0.5;" x="25.8828125" xlink:href="#mf0c55a9a47" y="110.975059172"/>
      </g>
     </g>
    </g>
    <g id="ytick_22">
     <g id="line2d_52">
      <g>
       <use style="stroke:#000000;stroke-width:0.5;" x="25.8828125" xlink:href="#mf0c55a9a47" y="91.7574556213"/>
      </g>
     </g>
    </g>
    <g id="ytick_23">
     <g id="line2d_53">
      <g>
       <use style="stroke:#000000;stroke-width:0.5;" x="25.8828125" xlink:href="#mf0c55a9a47" y="72.539852071"/>
      </g>
     </g>
    </g>
    <g id="ytick_24">
     <g id="line2d_54">
      <g>
       <use style="stroke:#000000;stroke-width:0.5;" x="25.8828125" xlink:href="#mf0c55a9a47" y="53.3222485207"/>
      </g>
     </g>
    </g>
    <g id="ytick_25">
     <g id="line2d_55">
      <g>
       <use style="stroke:#000000;stroke-width:0.5;" x="25.8828125" xlink:href="#mf0c55a9a47" y="34.1046449704"/>
      </g>
     </g>
    </g>
    <g id="ytick_26">
     <g id="line2d_56">
      <g>
       <use style="stroke:#000000;stroke-width:0.5;" x="25.8828125" xlink:href="#mf0c55a9a47" y="14.8870414201"/>
      </g>
     </g>
    </g>
   </g>
   <g id="patch_3">
    <path d="
M18.1958 399.239
L417.922 399.239" style="fill:none;stroke:#000000;stroke-width:0.8;"/>
   </g>
   <g id="patch_4">
    <path d="
M25.8828 406.926
L25.8828 7.2" style="fill:none;stroke:#000000;stroke-width:0.8;"/>
   </g>
   <g id="legend_1">
    <g id="patch_5">
     <path d="
M356.122 242.703
L411.922 242.703
L411.922 171.423
L356.122 171.423
L356.122 242.703
z
" style="fill:#e6e6e6;stroke:#000000;"/>
    </g>
    <g id="line2d_57">
     <path d="
M366.922 185.223
L360.322 185.223" style="fill:none;stroke:#ff0000;stroke-linecap:square;stroke-width:3.0;"/>
    </g>
    <g id="line2d_58"/>
    <g id="text_11">
     <!-- $B^3_0(u)$ -->
     <defs>
      <path d="
M9.51562 7.71875
Q11.8594 4.29688 15.8125 2.64062
Q19.7812 0.984375 24.3125 0.984375
Q30.125 0.984375 32.5625 5.9375
Q35.0156 10.8906 35.0156 17.1875
Q35.0156 20.0156 34.5 22.8438
Q33.9844 25.6875 32.7656 28.125
Q31.5469 30.5625 29.4219 32.0312
Q27.2969 33.5 24.2188 33.5
L17.5781 33.5
Q16.7031 33.5 16.7031 34.4219
L16.7031 35.2969
Q16.7031 36.0781 17.5781 36.0781
L23.0938 36.5312
Q26.6094 36.5312 28.9219 39.1562
Q31.25 41.7969 32.3281 45.5781
Q33.4062 49.3594 33.4062 52.7812
Q33.4062 57.5625 31.1562 60.6406
Q28.9062 63.7188 24.3125 63.7188
Q20.5156 63.7188 17.0469 62.2812
Q13.5781 60.8438 11.5312 57.9062
Q11.7188 57.9531 11.8594 57.9844
Q12.0156 58.0156 12.2031 58.0156
Q14.4531 58.0156 15.9688 56.4531
Q17.4844 54.8906 17.4844 52.6875
Q17.4844 50.5312 15.9688 48.9688
Q14.4531 47.4062 12.2031 47.4062
Q10.0156 47.4062 8.45312 48.9688
Q6.89062 50.5312 6.89062 52.6875
Q6.89062 56.9844 9.46875 60.1562
Q12.0625 63.3281 16.1406 64.9688
Q20.2188 66.6094 24.3125 66.6094
Q27.3438 66.6094 30.7031 65.7031
Q34.0781 64.7969 36.8125 63.1094
Q39.5469 61.4219 41.2812 58.7812
Q43.0156 56.1562 43.0156 52.7812
Q43.0156 48.5781 41.1406 45.0156
Q39.2656 41.4531 35.9844 38.8594
Q32.7188 36.2812 28.8125 35.0156
Q33.1562 34.1875 37.0625 31.7344
Q40.9688 29.2969 43.3281 25.4844
Q45.7031 21.6875 45.7031 17.2812
Q45.7031 11.7656 42.6719 7.29688
Q39.6562 2.82812 34.7188 0.3125
Q29.7812 -2.20312 24.3125 -2.20312
Q19.625 -2.20312 14.9062 -0.40625
Q10.2031 1.375 7.20312 4.9375
Q4.20312 8.5 4.20312 13.4844
Q4.20312 15.9688 5.85938 17.625
Q7.51562 19.2812 10.0156 19.2812
Q11.625 19.2812 12.9688 18.5312
Q14.3125 17.7812 15.0625 16.4062
Q15.8281 15.0469 15.8281 13.4844
Q15.8281 11.0312 14.1094 9.375
Q12.4062 7.71875 10.0156 7.71875
z
" id="Cmr10-33"/>
      <path d="
M25 -2.20312
Q12.75 -2.20312 8.32812 7.875
Q3.90625 17.9688 3.90625 31.8906
Q3.90625 40.5781 5.48438 48.2344
Q7.07812 55.9062 11.7812 61.25
Q16.5 66.6094 25 66.6094
Q31.5938 66.6094 35.7812 63.375
Q39.9844 60.1562 42.1875 55.0469
Q44.3906 49.9531 45.1875 44.1094
Q46 38.2812 46 31.8906
Q46 23.2969 44.4062 15.7969
Q42.8281 8.29688 38.1875 3.04688
Q33.5469 -2.20312 25 -2.20312
M25 0.390625
Q30.5625 0.390625 33.2969 6.09375
Q36.0312 11.8125 36.6719 18.75
Q37.3125 25.6875 37.3125 33.5
Q37.3125 41.0156 36.6719 47.3594
Q36.0312 53.7188 33.3125 58.8594
Q30.6094 64.0156 25 64.0156
Q19.3438 64.0156 16.6094 58.8281
Q13.875 53.6562 13.2344 47.3281
Q12.5938 41.0156 12.5938 33.5
Q12.5938 27.9375 12.8594 23
Q13.1406 18.0625 14.3125 12.8125
Q15.4844 7.5625 18.0938 3.96875
Q20.7031 0.390625 25 0.390625" id="Cmr10-30"/>
      <path d="
M31 -24.8125
Q25.4375 -20.4062 21.4062 -14.7188
Q17.3906 -9.03125 14.8125 -2.57812
Q12.25 3.85938 10.9844 10.8906
Q9.71875 17.9219 9.71875 25
Q9.71875 32.1719 10.9844 39.2031
Q12.25 46.2344 14.8594 52.7344
Q17.4844 59.2344 21.5312 64.8906
Q25.5938 70.5625 31 74.8125
Q31 75 31.5 75
L32.4219 75
Q32.7188 75 32.9531 74.7344
Q33.2031 74.4688 33.2031 74.125
Q33.2031 73.6875 33.0156 73.4844
Q28.125 68.7031 24.875 63.2344
Q21.625 57.7656 19.6406 51.5781
Q17.6719 45.4062 16.7969 38.7812
Q15.9219 32.1719 15.9219 25
Q15.9219 -6.78125 32.9062 -23.2969
Q33.2031 -23.5781 33.2031 -24.125
Q33.2031 -24.3594 32.9375 -24.6719
Q32.6719 -25 32.4219 -25
L31.5 -25
Q31 -25 31 -24.8125" id="Cmr10-28"/>
      <path d="
M6.5 -25
Q5.60938 -25 5.60938 -24.125
Q5.60938 -23.6875 5.8125 -23.4844
Q22.9062 -6.78125 22.9062 25
Q22.9062 56.7812 6 73.2969
Q5.60938 73.5312 5.60938 74.125
Q5.60938 74.4688 5.875 74.7344
Q6.15625 75 6.5 75
L7.42188 75
Q7.71875 75 7.90625 74.8125
Q15.0938 69.1406 19.875 61.0312
Q24.6562 52.9375 26.875 43.75
Q29.1094 34.5781 29.1094 25
Q29.1094 17.9219 27.9062 11.0625
Q26.7031 4.20312 24.0938 -2.45312
Q21.4844 -9.125 17.4844 -14.7656
Q13.4844 -20.4062 7.90625 -24.8125
Q7.71875 -25 7.42188 -25
z
" id="Cmr10-29"/>
      <path d="
M4.98438 0
Q4 0 4 1.3125
Q4.04688 1.5625 4.1875 2.14062
Q4.34375 2.73438 4.57812 3.125
Q4.82812 3.51562 5.32812 3.51562
Q8.15625 3.51562 10.25 3.65625
Q12.3594 3.8125 13.8125 4.20312
Q14.9844 4.64062 15.7188 6.89062
L29.3906 61.8125
Q29.5938 62.7969 29.5938 63.1875
Q29.5938 64.2656 28.4219 64.4062
Q26.5156 64.7969 21.1875 64.7969
Q20.2188 64.7969 20.2188 66.1094
Q20.2656 66.3594 20.4062 66.9688
Q20.5625 67.5781 20.8281 67.9375
Q21.0938 68.3125 21.4844 68.3125
L57.3281 68.3125
Q60.5938 68.3125 63.7969 67.5
Q67 66.7031 69.7031 64.9375
Q72.4062 63.1875 74 60.5625
Q75.5938 57.9531 75.5938 54.5
Q75.5938 50.7344 73.6562 47.5
Q71.7344 44.2812 68.6719 41.8906
Q65.625 39.5 62.0781 37.9531
Q58.5469 36.4219 54.6875 35.6875
Q57.4219 35.6875 60.2188 34.6094
Q63.0312 33.5469 65.2344 31.6875
Q67.4375 29.8281 68.7812 27.2344
Q70.125 24.6562 70.125 21.6875
Q70.125 15.6719 65.9219 10.6875
Q61.7188 5.71875 55.3438 2.85938
Q48.9688 0 43.0156 0
z

M23.3906 4.29688
Q23.3906 3.51562 26.8125 3.51562
L41.1094 3.51562
Q46 3.51562 50.4844 6.21875
Q54.9844 8.9375 57.6875 13.4219
Q60.4062 17.9219 60.4062 22.7969
Q60.4062 25.7812 59.1562 28.4375
Q57.9062 31.1094 55.5625 32.6406
Q53.2188 34.1875 50.2031 34.1875
L30.7188 34.1875
L23.7812 6.5
Q23.3906 5.125 23.3906 4.29688
M31.3906 36.8125
L46.5781 36.8125
Q51.375 36.8125 55.8906 39.25
Q60.4062 41.7031 63.25 45.8906
Q66.1094 50.0938 66.1094 54.7812
Q66.1094 59.125 63.3906 61.9531
Q60.6875 64.7969 56.3906 64.7969
L42.6719 64.7969
Q39.9844 64.7969 39.0625 64.2969
Q38.1406 63.8125 37.5 61.375
z
" id="Cmmi10-42"/>
      <path d="
M10.5938 10.8906
Q10.5938 14.1562 11.4688 17.5938
Q12.3594 21.0469 13.9375 25.2656
Q15.5312 29.5 16.7031 32.625
Q18.0156 36.2812 18.0156 38.625
Q18.0156 41.6094 15.8281 41.6094
Q11.8594 41.6094 9.29688 37.5312
Q6.73438 33.4531 5.51562 28.4219
Q5.32812 27.7812 4.6875 27.7812
L3.51562 27.7812
Q2.6875 27.7812 2.6875 28.7188
L2.6875 29
Q4.29688 34.9688 7.60938 39.5781
Q10.9375 44.1875 16.0156 44.1875
Q19.5781 44.1875 22.0469 41.8438
Q24.5156 39.5 24.5156 35.8906
Q24.5156 34.0312 23.6875 31.9844
Q23.25 30.7656 21.6875 26.6562
Q20.125 22.5625 19.2812 19.875
Q18.4531 17.1875 17.9219 14.5938
Q17.3906 12.0156 17.3906 9.42188
Q17.3906 6.10938 18.7969 3.8125
Q20.2188 1.51562 23.3906 1.51562
Q29.7812 1.51562 34.625 9.42188
Q34.7188 9.8125 34.7812 10.1719
Q34.8594 10.5469 34.9062 10.8906
L42.0938 39.8906
Q42.4375 41.2188 43.6562 42.1562
Q44.875 43.1094 46.2969 43.1094
Q47.5156 43.1094 48.4062 42.3281
Q49.3125 41.5469 49.3125 40.2812
Q49.3125 39.7031 49.2188 39.5
L42 10.6875
Q41.3125 7.71875 41.3125 5.8125
Q41.3125 1.51562 44.1875 1.51562
Q47.4062 1.51562 49 5.48438
Q50.5938 9.46875 51.7031 14.7031
Q51.9062 15.2812 52.4844 15.2812
L53.7188 15.2812
Q54.1094 15.2812 54.3438 14.9375
Q54.5938 14.5938 54.5938 14.3125
Q53.5156 10.0156 52.5156 6.9375
Q51.5156 3.85938 49.3594 1.35938
Q47.2188 -1.125 44 -1.125
Q40.8281 -1.125 38.3125 0.609375
Q35.7969 2.34375 34.9062 5.32812
Q32.625 2.39062 29.5938 0.625
Q26.5625 -1.125 23.1875 -1.125
Q17.4375 -1.125 14.0156 2.01562
Q10.5938 5.17188 10.5938 10.8906" id="Cmmi10-75"/>
     </defs>
     <g transform="translate(369.921924926 189.423076923)scale(0.12 -0.12)">
      <use transform="translate(0.0 0.5703125)" xlink:href="#Cmmi10-42"/>
      <use transform="translate(88.0775 43.3734375)scale(0.7)" xlink:href="#Cmr10-33"/>
      <use transform="translate(75.78125 -24.9390625)scale(0.7)" xlink:href="#Cmr10-30"/>
      <use transform="translate(155.08375 0.5703125)" xlink:href="#Cmr10-28"/>
      <use transform="translate(193.902109375 0.5703125)" xlink:href="#Cmmi10-75"/>
      <use transform="translate(251.07984375 0.5703125)" xlink:href="#Cmr10-29"/>
     </g>
    </g>
    <g id="line2d_59">
     <path d="
M366.922 199.623
L360.322 199.623" style="fill:none;stroke:#7fff00;stroke-linecap:square;stroke-width:3.0;"/>
    </g>
    <g id="line2d_60"/>
    <g id="text_12">
     <!-- $B^3_1(u)$ -->
     <defs>
      <path d="
M9.28125 0
L9.28125 3.51562
Q21.7812 3.51562 21.7812 6.6875
L21.7812 59.1875
Q16.6094 56.6875 8.6875 56.6875
L8.6875 60.2031
Q20.9531 60.2031 27.2031 66.6094
L28.6094 66.6094
Q28.9531 66.6094 29.2656 66.3281
Q29.5938 66.0625 29.5938 65.7188
L29.5938 6.6875
Q29.5938 3.51562 42.0938 3.51562
L42.0938 0
z
" id="Cmr10-31"/>
     </defs>
     <g transform="translate(369.921924926 203.823076923)scale(0.12 -0.12)">
      <use transform="translate(0.0 0.5703125)" xlink:href="#Cmmi10-42"/>
      <use transform="translate(88.0775 43.3734375)scale(0.7)" xlink:href="#Cmr10-33"/>
      <use transform="translate(75.78125 -24.9390625)scale(0.7)" xlink:href="#Cmr10-31"/>
      <use transform="translate(155.08375 0.5703125)" xlink:href="#Cmr10-28"/>
      <use transform="translate(193.902109375 0.5703125)" xlink:href="#Cmmi10-75"/>
      <use transform="translate(251.07984375 0.5703125)" xlink:href="#Cmr10-29"/>
     </g>
    </g>
    <g id="line2d_61">
     <path d="
M366.922 213.783
L360.322 213.783" style="fill:none;stroke:#00ffff;stroke-linecap:square;stroke-width:3.0;"/>
    </g>
    <g id="line2d_62"/>
    <g id="text_13">
     <!-- $B^3_2(u)$ -->
     <defs>
      <path d="
M4.98438 0
L4.98438 2.6875
Q4.98438 2.9375 5.17188 3.21875
L20.7031 20.4062
Q24.2188 24.2188 26.4062 26.7969
Q28.6094 29.3906 30.75 32.7656
Q32.9062 36.1406 34.1562 39.625
Q35.4062 43.1094 35.4062 47.0156
Q35.4062 51.125 33.8906 54.8594
Q32.375 58.5938 29.375 60.8438
Q26.375 63.0938 22.125 63.0938
Q17.7812 63.0938 14.3125 60.4688
Q10.8438 57.8594 9.42188 53.7188
Q9.8125 53.8125 10.5 53.8125
Q12.75 53.8125 14.3281 52.2969
Q15.9219 50.7812 15.9219 48.3906
Q15.9219 46.0938 14.3281 44.5
Q12.75 42.9219 10.5 42.9219
Q8.15625 42.9219 6.5625 44.5469
Q4.98438 46.1875 4.98438 48.3906
Q4.98438 52.1562 6.39062 55.4375
Q7.8125 58.7344 10.4688 61.2969
Q13.1406 63.875 16.4844 65.2344
Q19.8281 66.6094 23.5781 66.6094
Q29.2969 66.6094 34.2188 64.1875
Q39.1562 61.7656 42.0312 57.3438
Q44.9219 52.9375 44.9219 47.0156
Q44.9219 42.6719 43.0156 38.7656
Q41.1094 34.8594 38.125 31.6562
Q35.1562 28.4688 30.5156 24.4062
Q25.875 20.3594 24.4219 19
L13.0938 8.10938
L22.7031 8.10938
Q29.7812 8.10938 34.5469 8.21875
Q39.3125 8.34375 39.5938 8.59375
Q40.7656 9.85938 42 17.8281
L44.9219 17.8281
L42.0938 0
z
" id="Cmr10-32"/>
     </defs>
     <g transform="translate(369.921924926 217.983076923)scale(0.12 -0.12)">
      <use transform="translate(0.0 0.5703125)" xlink:href="#Cmmi10-42"/>
      <use transform="translate(88.0775 43.3734375)scale(0.7)" xlink:href="#Cmr10-33"/>
      <use transform="translate(75.78125 -24.9390625)scale(0.7)" xlink:href="#Cmr10-32"/>
      <use transform="translate(155.08375 0.5703125)" xlink:href="#Cmr10-28"/>
      <use transform="translate(193.902109375 0.5703125)" xlink:href="#Cmmi10-75"/>
      <use transform="translate(251.07984375 0.5703125)" xlink:href="#Cmr10-29"/>
     </g>
    </g>
    <g id="line2d_63">
     <path d="
M366.922 227.943
L360.322 227.943" style="fill:none;stroke:#7f00ff;stroke-linecap:square;stroke-width:3.0;"/>
    </g>
    <g id="line2d_64"/>
    <g id="text_14">
     <!-- $B^3_3(u)$ -->
     <g transform="translate(369.921924926 232.143076923)scale(0.12 -0.12)">
      <use transform="translate(0.0 0.5703125)" xlink:href="#Cmmi10-42"/>
      <use transform="translate(88.0775 43.3734375)scale(0.7)" xlink:href="#Cmr10-33"/>
      <use transform="translate(75.78125 -24.9390625)scale(0.7)" xlink:href="#Cmr10-33"/>
      <use transform="translate(155.08375 0.5703125)" xlink:href="#Cmr10-28"/>
      <use transform="translate(193.902109375 0.5703125)" xlink:href="#Cmmi10-75"/>
      <use transform="translate(251.07984375 0.5703125)" xlink:href="#Cmr10-29"/>
     </g>
    </g>
   </g>
  </g>
 </g>
 <defs>
  <clipPath id="pc39c081b78">
   <rect height="399.726153846" width="399.726153846" x="18.1957710799" y="7.2"/>
  </clipPath>
 </defs>
</svg>
